<?xml version="1.0" encoding="UTF-8"?>
<svg xmlns="http://www.w3.org/2000/svg" width="178" height="68" viewBox="0 0 178 68" fill="none">
  <path fill-rule="evenodd" clip-rule="evenodd" d="M43.4236 67.1236L43.4236 36.25H57.3668V46.0634H60.964V36.25L74.9072 36.25V67.1236H60.964V55.1295H57.3668L57.3668 67.1236H43.4236ZM78.4473 67.1236V36.25H107.133V45.2725L92.3905 45.2725V49.0728L105.212 49.0728V54.3008L92.3905 54.3008V58.0575L107.133 58.0575V67.1236L78.4473 67.1236ZM110.698 67.1236V36.25H137.812L142.181 39.9725V52.9325L139.185 55.4726L143.373 67.1236H128.908L126.611 56.656H124.641V67.1236H110.698ZM128.238 40.9546H124.641V50.5994H128.238V40.9546Z" fill="black"></path>
  <path fill-rule="evenodd" clip-rule="evenodd" d="M150.286 36.3936L145.917 40.116V63.5467L150.288 67.3108H173.03L177.401 63.5467V40.116L173.031 36.3936L150.286 36.3936ZM159.024 59.8663H161.083V57.5066H162.888L162.888 59.8663H164.947L164.947 57.5066H167.469V54.7876H169.955V52.7285H167.469V50.9925L169.955 50.9925V48.9334L167.469 48.9334V46.4505H164.947L164.947 43.8411H162.888L162.888 46.4505H161.083L161.083 43.8411H159.024L159.024 46.4505H156.413V48.9334L153.93 48.9334V50.9925L156.413 50.9925V52.7285L153.93 52.7285V54.7876L156.413 54.7876V57.5066H159.024V59.8663Z" fill="black"></path>
  <path fill-rule="evenodd" clip-rule="evenodd" d="M0 31.4836L0 0.625977L15.9463 0.625977L18.8178 13.7485L20.0359 13.7485L23.0744 0.625977L39.0207 0.625977L39.0207 31.4836L25.0255 31.4836L25.0706 20.2298H23.8373L21.5192 28.8245L17.3562 28.8245L15.1835 20.2298H13.9952L13.9952 31.4836L0 31.4836ZM42.6048 4.34654L46.9904 0.625977L69.8204 0.625977L74.206 4.34655L74.206 31.4836L60.2107 31.4836L60.2107 20.9343L56.6001 20.9343L56.6001 31.4836L42.6048 31.4836L42.6048 4.34654ZM77.7593 31.4836L77.7593 0.625977L91.7545 0.625977L91.7545 11.5886L95.2813 11.5886L95.2813 0.625977L109.277 0.625977L109.277 9.77586L103.649 14.9826L109.277 20.2816L109.277 31.4836L95.2813 31.4836L95.2813 20.9343L91.7545 20.9343L91.7545 31.4836L77.7593 31.4836ZM112.832 31.4836L112.832 0.625977L141.624 0.625977L141.624 9.64378L126.827 9.64378L126.827 13.4422L139.696 13.4422V18.6674L126.827 18.6674L126.827 22.4222L141.624 22.4222L141.624 31.4836L112.832 31.4836ZM145.203 31.4836L145.203 0.625977L172.418 0.625977L176.804 4.34655L176.804 17.2999L173.796 19.8386L178 31.4836L163.481 31.4836L161.175 21.0214L159.198 21.0214L159.198 31.4836L145.203 31.4836ZM60.2107 5.32813L56.6001 5.32813L56.6001 14.0961L60.2107 14.0961L60.2107 5.32813ZM162.808 5.32813L159.198 5.32813L159.198 14.9679L162.808 14.9679L162.808 5.32813Z" fill="black"></path>
</svg>
